<svg width="84" height="30" viewBox="0 0 84 30" fill="none" xmlns="http://www.w3.org/2000/svg">
<path d="M0.32 14.92C0.32 12.1467 0.92 9.68 2.12 7.52C3.32 5.33333 4.98667 3.64 7.12 2.44C9.28 1.21333 11.72 0.599998 14.44 0.599998C17.7733 0.599998 20.6267 1.48 23 3.24C25.3733 5 26.96 7.4 27.76 10.44H20.24C19.68 9.26667 18.88 8.37333 17.84 7.76C16.8267 7.14667 15.6667 6.84 14.36 6.84C12.2533 6.84 10.5467 7.57333 9.24 9.04C7.93333 10.5067 7.28 12.4667 7.28 14.92C7.28 17.3733 7.93333 19.3333 9.24 20.8C10.5467 22.2667 12.2533 23 14.36 23C15.6667 23 16.8267 22.6933 17.84 22.08C18.88 21.4667 19.68 20.5733 20.24 19.4H27.76C26.96 22.44 25.3733 24.84 23 26.6C20.6267 28.3333 17.7733 29.2 14.44 29.2C11.72 29.2 9.28 28.6 7.12 27.4C4.98667 26.1733 3.32 24.48 2.12 22.32C0.92 20.16 0.32 17.6933 0.32 14.92ZM30.5888 17.8C30.5888 15.5067 31.0154 13.4933 31.8688 11.76C32.7488 10.0267 33.9354 8.69333 35.4288 7.76C36.9221 6.82667 38.5888 6.36 40.4288 6.36C42.0021 6.36 43.3754 6.68 44.5488 7.32C45.7488 7.96 46.6688 8.8 47.3088 9.84V6.68H54.1488V29H47.3088V25.84C46.6421 26.88 45.7088 27.72 44.5088 28.36C43.3354 29 41.9621 29.32 40.3888 29.32C38.5754 29.32 36.9221 28.8533 35.4288 27.92C33.9354 26.96 32.7488 25.6133 31.8688 23.88C31.0154 22.12 30.5888 20.0933 30.5888 17.8ZM47.3088 17.84C47.3088 16.1333 46.8288 14.7867 45.8688 13.8C44.9354 12.8133 43.7888 12.32 42.4288 12.32C41.0688 12.32 39.9088 12.8133 38.9488 13.8C38.0154 14.76 37.5488 16.0933 37.5488 17.8C37.5488 19.5067 38.0154 20.8667 38.9488 21.88C39.9088 22.8667 41.0688 23.36 42.4288 23.36C43.7888 23.36 44.9354 22.8667 45.8688 21.88C46.8288 20.8933 47.3088 19.5467 47.3088 17.84ZM65.9372 10.4C66.7372 9.17333 67.7372 8.21333 68.9372 7.52C70.1372 6.8 71.4705 6.44 72.9372 6.44V13.68H71.0572C69.3505 13.68 68.0705 14.0533 67.2172 14.8C66.3639 15.52 65.9372 16.8 65.9372 18.64V29H59.0972V6.68H65.9372V10.4ZM79.4066 29.32C78.2066 29.32 77.2199 28.9733 76.4466 28.28C75.6999 27.56 75.3266 26.68 75.3266 25.64C75.3266 24.5733 75.6999 23.68 76.4466 22.96C77.2199 22.24 78.2066 21.88 79.4066 21.88C80.5799 21.88 81.5399 22.24 82.2866 22.96C83.0599 23.68 83.4466 24.5733 83.4466 25.64C83.4466 26.68 83.0599 27.56 82.2866 28.28C81.5399 28.9733 80.5799 29.32 79.4066 29.32Z" fill="#007972"/>
</svg>
